<svg width="16" height="16" viewBox="0 0 16 16" fill="none" xmlns="http://www.w3.org/2000/svg">
<path d="M11.5268 2.76L11.4802 5.28666C11.4735 5.63333 11.6936 6.09333 11.9736 6.3L13.6269 7.55334C14.6869 8.35334 14.5136 9.33334 13.2469 9.73334L11.0936 10.4067C10.7336 10.52 10.3536 10.9133 10.2602 11.28L9.74689 13.24C9.34022 14.7867 8.32682 14.94 7.48682 13.58L6.31351 11.68C6.10018 11.3333 5.59351 11.0733 5.19351 11.0933L2.96687 11.2067C1.37354 11.2867 0.920199 10.3667 1.9602 9.15334L3.28019 7.62001C3.52685 7.33334 3.64018 6.80001 3.52685 6.44L2.85355 4.28666C2.46021 3.02 3.16687 2.32 4.42687 2.73334L6.39355 3.38C6.72689 3.48667 7.22688 3.41333 7.50689 3.20666L9.56022 1.72666C10.6669 0.926664 11.5535 1.39333 11.5268 2.76Z" fill="#F4DB00"/>
<path opacity="0.4" d="M14.2935 13.6466L12.2735 11.6266C12.0802 11.4333 11.7602 11.4333 11.5669 11.6266C11.3735 11.8199 11.3735 12.1399 11.5669 12.3333L13.5869 14.3533C13.6869 14.4533 13.8135 14.4999 13.9402 14.4999C14.0669 14.4999 14.1935 14.4533 14.2935 14.3533C14.4869 14.1599 14.4869 13.8399 14.2935 13.6466Z" fill="#F4DB00"/>
</svg>
